<svg id="Line" viewBox="0 0 32 32" xmlns="http://www.w3.org/2000/svg"><title/><circle cx="16" cy="3" r="2" style="fill:none;stroke:currentcolor;stroke-linecap:round;stroke-linejoin:round;stroke-width:2px"/><circle cx="16" cy="29" r="2" style="fill:none;stroke:currentcolor;stroke-linecap:round;stroke-linejoin:round;stroke-width:2px"/><circle cx="6.808" cy="6.808" r="2" style="fill:none;stroke:currentcolor;stroke-linecap:round;stroke-linejoin:round;stroke-width:2px"/><circle cx="25.192" cy="25.192" r="2" style="fill:none;stroke:currentcolor;stroke-linecap:round;stroke-linejoin:round;stroke-width:2px"/><circle cx="3" cy="16" r="2" style="fill:none;stroke:currentcolor;stroke-linecap:round;stroke-linejoin:round;stroke-width:2px"/><circle cx="29" cy="16" r="2" style="fill:none;stroke:currentcolor;stroke-linecap:round;stroke-linejoin:round;stroke-width:2px"/><circle cx="6.808" cy="25.192" r="2" style="fill:none;stroke:currentcolor;stroke-linecap:round;stroke-linejoin:round;stroke-width:2px"/><circle cx="25.192" cy="6.808" r="2" style="fill:none;stroke:currentcolor;stroke-linecap:round;stroke-linejoin:round;stroke-width:2px"/><circle cx="16" cy="16" r="8" style="fill:none;stroke:currentcolor;stroke-linecap:round;stroke-linejoin:round;stroke-width:2px"/><line style="fill:none;stroke:currentcolor;stroke-linecap:round;stroke-linejoin:round;stroke-width:2px" x1="24" x2="27" y1="16" y2="16"/><line style="fill:none;stroke:currentcolor;stroke-linecap:round;stroke-linejoin:round;stroke-width:2px" x1="5" x2="8" y1="16" y2="16"/><line style="fill:none;stroke:currentcolor;stroke-linecap:round;stroke-linejoin:round;stroke-width:2px" x1="21.657" x2="23.778" y1="10.343" y2="8.222"/><line style="fill:none;stroke:currentcolor;stroke-linecap:round;stroke-linejoin:round;stroke-width:2px" x1="8.222" x2="10.343" y1="23.778" y2="21.657"/><line style="fill:none;stroke:currentcolor;stroke-linecap:round;stroke-linejoin:round;stroke-width:2px" x1="16" x2="16" y1="8" y2="5"/><line style="fill:none;stroke:currentcolor;stroke-linecap:round;stroke-linejoin:round;stroke-width:2px" x1="16" x2="16" y1="27" y2="24"/><line style="fill:none;stroke:currentcolor;stroke-linecap:round;stroke-linejoin:round;stroke-width:2px" x1="10.343" x2="8.222" y1="10.343" y2="8.222"/><line style="fill:none;stroke:currentcolor;stroke-linecap:round;stroke-linejoin:round;stroke-width:2px" x1="23.778" x2="21.657" y1="23.778" y2="21.657"/><circle cx="16" cy="14" r="2" style="fill:none;stroke:currentcolor;stroke-linecap:round;stroke-linejoin:round;stroke-width:2px"/><circle cx="19" cy="19" r="1" style="fill:none;stroke:currentcolor;"/><circle cx="13" cy="19" r="1" style="fill:none;stroke:currentcolor;"/></svg>